<svg width="100%" viewBox="0 0 520 440" xmlns="http://www.w3.org/2000/svg" role="img">
<title>Edmund Eric Gah — system profile card</title>
<defs>
<linearGradient id="cbg" x1="0" y1="0" x2="0" y2="1">
<stop offset="0%" stop-color="#1d0a30"/>
<stop offset="100%" stop-color="#0a0118"/>
</linearGradient>
<linearGradient id="ctitle" x1="0" y1="0" x2="1" y2="0">
<stop offset="0%" stop-color="#05d9e8"/>
<stop offset="100%" stop-color="#ff2fb5"/>
</linearGradient>
</defs>

<rect x="1" y="1" width="518" height="438" rx="14" fill="url(#cbg)" stroke="#7b2ff7" stroke-opacity="0.45"/>

<g stroke="#05d9e8" stroke-width="1" opacity="0.12">
<line x1="0" y1="60" x2="520" y2="60"/>
<line x1="0" y1="120" x2="520" y2="120"/>
<line x1="0" y1="180" x2="520" y2="180"/>
<line x1="0" y1="240" x2="520" y2="240"/>
<line x1="0" y1="300" x2="520" y2="300"/>
<line x1="0" y1="360" x2="520" y2="360"/>
</g>

<circle cx="34" cy="34" r="5" fill="#ff5f9e"/>
<circle cx="54" cy="34" r="5" fill="#ffd166" fill-opacity="0.85"/>
<circle cx="74" cy="34" r="5" fill="#39ff9d" fill-opacity="0.85"/>
<text x="486" y="39" text-anchor="end" font-family="Consolas, 'Fira Code', monospace" font-size="12" letter-spacing="2" fill="#8b8b9e">system_profile.sh</text>

<line x1="24" y1="54" x2="496" y2="54" stroke="#ff5f9e" stroke-width="1" opacity="0.4"/>

<text x="34" y="90" font-family="Consolas, 'Fira Code', monospace" font-size="14" fill="#39ff9d">root@eddiegah:~$ <tspan fill="#e8e8f0">./profile</tspan></text>

<text x="34" y="128" font-family="Consolas, 'Fira Code', monospace" font-size="22" font-weight="700" fill="url(#ctitle)">EDMUND ERIC GAH</text>
<text x="34" y="150" font-family="Consolas, 'Fira Code', monospace" font-size="13" fill="#8b8b9e">AI / ML Engineer &#38; Systems Builder</text>

<rect x="34" y="172" width="452" height="1" fill="#05d9e8" opacity="0.25"/>

<circle cx="42" cy="200" r="4" fill="#ff2fb5"/>
<text x="56" y="205" font-family="Consolas, 'Fira Code', monospace" font-size="13" fill="#e8e8f0">Machine Learning &#38; Deep Learning</text>

<circle cx="42" cy="228" r="4" fill="#7b2ff7"/>
<text x="56" y="233" font-family="Consolas, 'Fira Code', monospace" font-size="13" fill="#e8e8f0">Autonomous Systems &#38; Robotics</text>

<circle cx="42" cy="256" r="4" fill="#05d9e8"/>
<text x="56" y="261" font-family="Consolas, 'Fira Code', monospace" font-size="13" fill="#e8e8f0">Systems Programming</text>

<rect x="34" y="278" width="452" height="1" fill="#05d9e8" opacity="0.25"/>

<text x="34" y="304" font-family="Consolas, 'Fira Code', monospace" font-size="11" letter-spacing="2" fill="#8b8b9e">FLAGSHIP</text>
<text x="34" y="326" font-family="Consolas, 'Fira Code', monospace" font-size="15" font-weight="700" fill="#ff5f9e">AutoNav</text>
<text x="34" y="346" font-family="Consolas, 'Fira Code', monospace" font-size="12" fill="#8b8b9e">Visual Odometry + LiDAR + A* + Control</text>

<rect x="34" y="366" width="452" height="1" fill="#05d9e8" opacity="0.25"/>

<text x="34" y="392" font-family="Consolas, 'Fira Code', monospace" font-size="11" letter-spacing="2" fill="#8b8b9e">STATUS</text>
<text x="34" y="414" font-family="Consolas, 'Fira Code', monospace" font-size="13" fill="#39ff9d">open_to: <tspan fill="#e8e8f0">collaborations, research, opportunities</tspan></text>

<rect x="480" y="80" width="10" height="16" fill="#05d9e8">
<animate attributeName="opacity" values="1;1;0;0;1" keyTimes="0;0.5;0.51;0.99;1" dur="1.1s" repeatCount="indefinite"/>
</rect>
</svg>
